# xmcd
#
# Track frame offsets:
#	150
#	16820
#	35290
#	48985
#	70210
#	86752
#	105415
#	123165
#	136920
#	155720
#	171390
#	183535
#	202170
#
# Disc length: 3297 seconds
#
# Revision: 0
# Processed by: cddbd v1.5.1PL0 Copyright (c) Steve Scherf et al.
# Submitted via: dBpowerAMP V4.0
#
DISCID=b00cdf0d
DTITLE=The Shoppe - Sing Your Heart Out
DYEAR=1900
DGENRE=Country
TTITLE0=Let The Heartache Ride
TTITLE1=Love Will Keep Us Alive
TTITLE2=Ordinary Average Guy
TTITLE3=More To Love
TTITLE4=Everything To Lose (An' Nothin To Gain)
TTITLE5=Look At Us
TTITLE6=Bown Eyed Girl
TTITLE7=Liza Jane
TTITLE8=When She Cries
TTITLE9=Some Kinda Wonderful
TTITLE10=Freddie Feelgood And His Funky Little Five Piece Band
TTITLE11=Cryin'
TTITLE12=Buddy Holley Medley
EXTD=
EXTT0=
EXTT1=
EXTT2=
EXTT3=
EXTT4=
EXTT5=
EXTT6=
EXTT7=
EXTT8=
EXTT9=
EXTT10=
EXTT11=
EXTT12=
PLAYORDER=
